<svg xmlns="http://www.w3.org/2000/svg" width="1152" height="864" viewBox="0 0 1152 864">
  <title>Launch readiness signal map</title>
  <defs>
    <pattern id="grid" width="48" height="48" patternUnits="userSpaceOnUse">
      <path d="M48 0H0V48" fill="none" stroke="#164B52" stroke-opacity=".06"/>
    </pattern>
    <filter id="shadow" x="-20%" y="-20%" width="140%" height="140%">
      <feDropShadow dx="0" dy="12" stdDeviation="14" flood-color="#182126" flood-opacity=".12"/>
    </filter>
    <marker id="arrow" viewBox="0 0 10 10" refX="8" refY="5" markerWidth="8" markerHeight="8" orient="auto-start-reverse">
      <path d="M0 0L10 5 0 10Z" fill="#164B52"/>
    </marker>
  </defs>
  <rect width="1152" height="864" fill="#F4F1EA"/>
  <rect width="1152" height="864" fill="url(#grid)"/>
  <g transform="translate(430 432)" filter="url(#shadow)">
    <circle r="300" fill="#FBFAF7" stroke="#164B52" stroke-width="2"/>
    <circle r="236" fill="none" stroke="#557582" stroke-width="2" stroke-dasharray="8 14"/>
    <circle r="172" fill="#DCE7E1" fill-opacity=".75" stroke="#164B52" stroke-width="2"/>
    <circle r="108" fill="#FBFAF7" stroke="#557582" stroke-width="2"/>
    <circle r="45" fill="#164B52"/>
    <path d="M0-300A300 300 0 0 1 260-150" fill="none" stroke="#B6533D" stroke-width="18" stroke-linecap="round"/>
    <path d="M-205 116A236 236 0 0 1-8-236" fill="none" stroke="#557582" stroke-width="12" stroke-linecap="round"/>
    <path d="M-154-77A172 172 0 0 1 153-79" fill="none" stroke="#2B6A5B" stroke-width="12" stroke-linecap="round"/>
    <g fill="#FBFAF7" stroke="#164B52" stroke-width="5">
      <circle cx="-192" cy="-154" r="14"/><circle cx="207" cy="-95" r="14"/>
      <circle cx="179" cy="155" r="14"/><circle cx="-104" cy="212" r="14"/>
    </g>
    <circle cx="256" cy="-150" r="20" fill="#B6533D" stroke="#FBFAF7" stroke-width="7"/>
    <circle cx="-42" cy="-158" r="16" fill="#2B6A5B" stroke="#FBFAF7" stroke-width="6"/>
  </g>
  <g transform="translate(815 164)">
    <path d="M0 0V536" stroke="#164B52" stroke-opacity=".25" stroke-width="2"/>
    <g transform="translate(0 42)">
      <circle r="14" fill="#2B6A5B"/><path d="M28 0H210" stroke="#164B52" stroke-width="8" stroke-linecap="round"/><path d="M28 0H174" stroke="#2B6A5B" stroke-width="8" stroke-linecap="round"/>
    </g>
    <g transform="translate(0 150)">
      <circle r="14" fill="#557582"/><path d="M28 0H210" stroke="#164B52" stroke-width="8" stroke-linecap="round"/><path d="M28 0H126" stroke="#557582" stroke-width="8" stroke-linecap="round"/>
    </g>
    <g transform="translate(0 258)">
      <circle r="14" fill="#B6533D"/><path d="M28 0H210" stroke="#164B52" stroke-width="8" stroke-linecap="round"/><path d="M28 0H72" stroke="#B6533D" stroke-width="8" stroke-linecap="round"/>
    </g>
    <g transform="translate(0 366)">
      <circle r="14" fill="#2B6A5B"/><path d="M28 0H210" stroke="#164B52" stroke-width="8" stroke-linecap="round"/><path d="M28 0H158" stroke="#2B6A5B" stroke-width="8" stroke-linecap="round"/>
    </g>
    <path d="M-70 508H210" fill="none" stroke="#164B52" stroke-width="3" marker-end="url(#arrow)"/>
  </g>
</svg>
